<svg width="17" height="16" viewBox="0 0 17 16" fill="none" xmlns="http://www.w3.org/2000/svg">
<g clip-path="url(#clip0_101_2)">
<path d="M11.4592 11.3426H5.36083C4.84823 11.3426 4.43121 10.9217 4.43121 10.4043V4.24871C4.43121 3.7313 4.84823 3.31037 5.36083 3.31037H11.4592C11.9718 3.31037 12.3888 3.7313 12.3888 4.24871V10.4043C12.3888 10.9217 11.9718 11.3426 11.4592 11.3426ZM5.36083 3.4605C4.92956 3.4605 4.57995 3.8134 4.57995 4.24871V10.4043C4.57995 10.8396 4.92956 11.1925 5.36083 11.1925H9.63258C11.0727 11.1925 12.2401 10.0141 12.2401 8.56052V4.24871C12.2401 3.8134 11.8905 3.4605 11.4592 3.4605L5.36083 3.4605Z" fill="#F2F2F2"/>
<path d="M6.01829 4.10061C5.72966 4.10061 5.49486 4.33762 5.49486 4.62895V5.45592C5.49486 5.74726 5.72966 5.98426 6.01829 5.98426H6.83758C7.12621 5.98426 7.36101 5.74726 7.36101 5.45592V4.62895C7.36101 4.33762 7.12621 4.10061 6.83758 4.10061H6.01829Z" fill="#F2F2F2"/>
<path d="M6.01829 6.42864C5.72966 6.42864 5.49486 6.66564 5.49486 6.95698V7.78395C5.49486 8.07528 5.72966 8.31229 6.01829 8.31229H6.83758C7.12621 8.31229 7.36101 8.07528 7.36101 7.78395V6.95698C7.36101 6.66564 7.12621 6.42864 6.83758 6.42864H6.01829Z" fill="#F2F2F2"/>
<path d="M6.01829 8.75666C5.72966 8.75666 5.49486 8.99366 5.49486 9.285V10.112C5.49486 10.4033 5.72966 10.6403 6.01829 10.6403H6.83758C7.12621 10.6403 7.36101 10.4033 7.36101 10.112V9.285C7.36101 8.99366 7.12621 8.75666 6.83758 8.75666H6.01829Z" fill="#F2F2F2"/>
<path d="M6.56159 2.08299C6.19791 2.08299 5.90205 2.38163 5.90205 2.74872V3.79072C5.90205 4.15782 6.19791 4.45645 6.56159 4.45645H7.59392C7.9576 4.45645 8.25346 4.15782 8.25346 3.79072V2.74872C8.25346 2.38163 7.9576 2.08299 7.59392 2.08299H6.56159Z" fill="#6C63FF"/>
<path d="M9.96026 4.99496C9.59658 4.99496 9.30072 5.2936 9.30072 5.66069V6.70269C9.30072 7.06979 9.59658 7.36842 9.96026 7.36842H10.9926C11.3563 7.36842 11.6521 7.06978 11.6521 6.70269V5.66069C11.6521 5.29359 11.3563 4.99496 10.9926 4.99496H9.96026Z" fill="#6C63FF"/>
<path d="M8.48269 15.4832L8.27298 15.4814L8.18014 14.6458L8.48966 14.6485L8.48269 15.4832Z" fill="#A0616A"/>
<path d="M7.81094 15.8198C7.81048 15.8719 7.85209 15.9148 7.9039 15.9152L8.32087 15.9187L8.39387 15.7694L8.42068 15.9195L8.57801 15.9209L8.53828 15.3856L8.48354 15.3819L8.26027 15.3663L8.18824 15.3615L8.18698 15.513L7.85203 15.7423C7.82654 15.7598 7.81119 15.7887 7.81094 15.8198Z" fill="#2F2E41"/>
<path d="M9.54972 15.4832L9.34 15.4814L9.24716 14.6458L9.55669 14.6485L9.54972 15.4832Z" fill="#A0616A"/>
<path d="M8.87796 15.8198C8.87751 15.8719 8.91912 15.9148 8.97092 15.9152L9.38789 15.9187L9.46089 15.7694L9.4877 15.9195L9.64503 15.9209L9.6053 15.3856L9.55057 15.3819L9.3273 15.3663L9.25527 15.3615L9.254 15.513L8.91905 15.7423C8.89357 15.7598 8.87822 15.7887 8.87796 15.8198Z" fill="#2F2E41"/>
<path d="M7.65973 8.72786L8.50982 8.75496L9.31517 8.9356C9.31517 8.9356 9.23464 9.03496 9.50309 9.30592C9.50309 9.30592 9.86102 9.93818 9.61047 10.5524L9.50309 13.0091C9.50309 13.0091 9.81617 14.741 9.57696 15.2922L9.2608 15.3121L8.72583 13.0291L8.46508 10.5704L8.3398 12.9911C8.3398 12.9911 8.81907 14.6526 8.51643 15.3121L8.17402 15.2922L7.58815 12.9911C7.58815 12.9911 7.33759 10.3356 7.37339 9.82979C7.40918 9.32399 7.65973 8.72786 7.65973 8.72786Z" fill="#2F2E41"/>
<path d="M10.5145 4.84579C10.3983 4.87616 10.3285 4.99587 10.3586 5.11317C10.3724 5.16692 10.4049 5.21065 10.4471 5.23953L10.4471 5.23983L10.4306 5.64289L10.7362 5.78562L10.7605 5.16539L10.7584 5.16546C10.7849 5.11781 10.7941 5.06025 10.7794 5.00318C10.7493 4.88588 10.6307 4.81542 10.5145 4.84579Z" fill="#A0616A"/>
<path d="M8.80668 6.28426C8.74249 6.22004 8.70525 6.13296 8.70386 6.03827C8.70198 5.91125 8.76505 5.79596 8.87255 5.72987C8.99635 5.65377 9.15115 5.66147 9.26694 5.74947L10.2265 6.47871L10.3975 5.42818L10.7645 5.54745L10.677 6.9154C10.6708 7.01108 10.6173 7.09538 10.5336 7.14088C10.45 7.18639 10.3508 7.18525 10.2682 7.13784L8.88155 6.34149C8.8537 6.32549 8.82861 6.3062 8.80668 6.28426Z" fill="#3F3D56"/>
<path d="M7.34354 4.25817C7.40489 4.36232 7.37096 4.49695 7.26778 4.55886C7.22049 4.58724 7.16692 4.5952 7.1168 4.58572L7.1166 4.58594L6.84717 4.88388L6.53061 4.76809L6.94591 4.3103L6.94737 4.31186C6.96179 4.25919 6.99544 4.21181 7.04564 4.18169C7.14883 4.11977 7.2822 4.15401 7.34354 4.25817Z" fill="#A0616A"/>
<path d="M7.45992 6.48082L5.9197 6.06088C5.828 6.03587 5.75675 5.96618 5.72911 5.87444C5.70147 5.7827 5.72222 5.68476 5.78461 5.61245L6.67657 4.57877L7.02045 4.75494L6.4091 5.62248L7.59918 5.78652C7.74279 5.80631 7.8581 5.91086 7.89293 6.05288C7.92317 6.1762 7.88754 6.30289 7.79761 6.39177C7.73057 6.45802 7.64339 6.49339 7.55301 6.49338C7.52213 6.49338 7.49086 6.48925 7.45992 6.48082Z" fill="#3F3D56"/>
<path d="M9.65578 9.08929L7.50197 9.18902C7.44281 9.09835 7.45883 8.962 7.54167 8.79128C7.85446 8.14666 7.61691 6.92716 7.45711 6.29217C7.41228 6.114 7.53263 5.93688 7.71385 5.91859L7.91692 5.89809L8.10464 5.31969H8.76208L9.03482 5.63421L9.4977 5.91804C9.41345 6.79402 9.05445 8.03097 9.56588 8.6513C9.67774 8.78697 9.70945 8.93368 9.65578 9.08929Z" fill="#3F3D56"/>
<path d="M8.34973 5.33305C8.7034 5.33305 8.9901 5.04366 8.9901 4.68668C8.9901 4.3297 8.7034 4.04031 8.34973 4.04031C7.99607 4.04031 7.70937 4.3297 7.70937 4.68668C7.70937 5.04366 7.99607 5.33305 8.34973 5.33305Z" fill="#A0616A"/>
<path d="M9.07436 4.27294C9.16345 3.94506 8.19242 3.6639 8.00372 3.92794C7.97748 3.8904 7.88051 3.8676 7.83601 3.87912C7.79152 3.89063 7.7541 3.91942 7.7176 3.94729C7.6674 3.98621 7.61538 4.02651 7.58458 4.08247C7.55355 4.13821 7.54876 4.21421 7.59051 4.26257C7.62359 4.30103 7.68173 4.50541 7.73147 4.51554C7.76615 4.52268 7.79535 4.52844 7.82045 4.53259C7.84281 4.49965 7.89983 4.45828 7.89573 4.41844C7.92949 4.44101 7.91716 4.48072 7.91035 4.5213C7.88768 4.65644 7.37692 5.70255 7.66945 5.39428C7.69843 5.41156 7.73425 5.42768 7.77555 5.44242C7.8456 5.33579 7.90309 5.21004 7.94097 5.07854L7.94124 5.08097C7.95428 5.19525 8.03702 5.28902 8.14648 5.32103C8.5856 5.44944 8.9408 5.26102 9.06299 4.92123C9.01826 4.82957 8.99877 4.83952 9.00278 4.8368C9.05862 4.79881 9.13536 4.82365 9.15936 4.88716C9.16644 4.90588 9.17287 4.92187 9.17844 4.9339C9.2421 4.70405 9.31781 4.73723 9.07436 4.27294Z" fill="#2F2E41"/>
<path d="M8.77143 4.03505L8.72657 3.80359C8.7228 3.78413 8.71922 3.76302 8.72791 3.74524C8.73908 3.7224 8.76779 3.71293 8.79277 3.71657C8.81775 3.72021 8.83643 3.74324 8.86128 3.74767C8.94769 3.76309 9.0619 3.67695 9.09286 3.89488C9.10577 3.98574 9.24941 3.99534 9.29738 4.07332C9.34536 4.15131 9.35125 4.26387 9.28578 4.32758C9.23349 4.37846 9.14951 4.38433 9.0816 4.35834C9.01369 4.33235 8.95919 4.27985 8.91158 4.22449C8.86397 4.16912 8.82086 4.10921 8.76594 4.06123" fill="#2F2E41"/>
<path d="M9.10856 4.38711C8.93334 4.3624 8.81391 4.29808 8.75358 4.19594C8.67461 4.06223 8.72751 3.91501 8.72979 3.90881L8.76683 3.92271C8.76634 3.92406 8.71836 4.05883 8.78773 4.17586C8.84169 4.26689 8.95148 4.32468 9.11403 4.34761L9.10856 4.38711Z" fill="#6C63FF"/>
<path d="M9.93085 1.88608C9.41572 1.88608 8.99657 1.463 8.99657 0.943041C8.99657 0.423079 9.41572 0 9.93085 0C10.446 0 10.8651 0.423079 10.8651 0.943041C10.8651 1.463 10.446 1.88608 9.93085 1.88608ZM9.93085 0.377216C9.62173 0.377216 9.37028 0.631027 9.37028 0.943041C9.37028 1.25505 9.62173 1.50886 9.93085 1.50886C10.24 1.50886 10.4914 1.25505 10.4914 0.943041C10.4914 0.631027 10.24 0.377216 9.93085 0.377216Z" fill="#6C63FF"/>
<path d="M11.3683 2.52696C11.3225 2.52696 11.2766 2.51011 11.2406 2.47594L10.3637 1.64645C10.2883 1.57526 10.2845 1.45591 10.3551 1.37993C10.4255 1.30368 10.5438 1.2999 10.6192 1.37128L11.496 2.20076C11.5714 2.27195 11.5752 2.39131 11.5046 2.46728C11.4678 2.50698 11.4181 2.52696 11.3683 2.52696Z" fill="#6C63FF"/>
<path d="M15.3314 15.462C15.395 15.466 15.4301 15.3863 15.382 15.3399L15.3772 15.3207C15.3779 15.3192 15.3785 15.3176 15.3791 15.3161C15.4434 15.1615 15.6611 15.1625 15.7248 15.3174C15.7814 15.4548 15.8533 15.5925 15.8711 15.7379C15.879 15.802 15.8754 15.8674 15.8613 15.9303C15.9938 15.6382 16.0635 15.3192 16.0635 14.9985C16.0635 14.9179 16.0592 14.8373 16.0502 14.7569C16.0429 14.6911 16.0328 14.6258 16.0196 14.561C15.9487 14.211 15.7952 13.8776 15.5737 13.5991C15.4673 13.5403 15.3785 13.4485 15.3249 13.3385C15.3056 13.2988 15.2905 13.2561 15.2833 13.2125C15.2955 13.2142 15.329 13.0279 15.3199 13.0165C15.3368 12.9906 15.367 12.9778 15.3854 12.9525C15.4772 12.827 15.6035 12.8489 15.6695 13.0195C15.8104 13.0913 15.8117 13.2103 15.7253 13.3248C15.6703 13.3977 15.6627 13.4962 15.6145 13.5742C15.6194 13.5806 15.6246 13.5869 15.6295 13.5933C15.7206 13.7112 15.7994 13.8379 15.8658 13.971C15.847 13.823 15.8747 13.6448 15.9219 13.5299C15.9757 13.399 16.0764 13.2888 16.1652 13.1756C16.2718 13.0397 16.4903 13.099 16.5091 13.2713C16.5093 13.273 16.5095 13.2746 16.5096 13.2763C16.4965 13.2838 16.4836 13.2918 16.4709 13.3002C16.399 13.3482 16.4239 13.4608 16.5091 13.4741L16.511 13.4744C16.5063 13.5223 16.4981 13.5698 16.4862 13.6165C16.6 14.0609 16.3543 14.2227 16.0034 14.23C15.9956 14.234 15.9881 14.238 15.9803 14.2418C16.0159 14.3429 16.0443 14.4465 16.0653 14.5516C16.0842 14.6444 16.0973 14.7382 16.1047 14.8325C16.1138 14.9514 16.113 15.0708 16.1031 15.1895L16.1037 15.1853C16.1289 15.0546 16.1992 14.9325 16.3013 14.8479C16.4534 14.7218 16.6682 14.6754 16.8323 14.574C16.9113 14.5252 17.0125 14.5883 16.9987 14.6807L16.9981 14.6851C16.9736 14.6951 16.9498 14.7068 16.9268 14.7198C16.9136 14.7273 16.9007 14.7353 16.888 14.7437C16.8161 14.7917 16.841 14.9043 16.9262 14.9176L16.9281 14.9179C16.9295 14.9181 16.9307 14.9183 16.9321 14.9185C16.8902 15.0189 16.8318 15.1121 16.7587 15.1925C16.6875 15.5805 16.3818 15.6173 16.0548 15.5043H16.0546C16.0188 15.6615 15.9666 15.815 15.8995 15.9614H15.3453C15.3433 15.9552 15.3415 15.9488 15.3398 15.9426C15.391 15.9458 15.4426 15.9428 15.4931 15.9333C15.452 15.8824 15.4109 15.8311 15.3697 15.7802C15.3688 15.7792 15.368 15.7782 15.3672 15.7772C15.3463 15.7511 15.3253 15.7252 15.3044 15.6992L15.3044 15.6991C15.3031 15.6191 15.3126 15.5394 15.3314 15.462Z" fill="#F2F2F2"/>
<path d="M0 15.9631C0 15.9836 0.0162995 16 0.0365967 16H16.9591C16.9794 16 16.9957 15.9836 16.9957 15.9631C16.9957 15.9426 16.9794 15.9261 16.9591 15.9261H0.0365967C0.0162995 15.9261 0 15.9426 0 15.9631Z" fill="#CCCCCC"/>
</g>
<defs>
<clipPath id="clip0_101_2">
<rect width="17" height="16" fill="white"/>
</clipPath>
</defs>
</svg>
